<svg xmlns="http://www.w3.org/2000/svg" xmlns:xlink="http://www.w3.org/1999/xlink" version="1.1" width="327.089pt" height="246.276pt" viewBox="0 0 327.089 246.276">
<defs>
<clipPath id="clip_0">
<path transform="matrix(1,0,0,-1,20.778004,192.837)" d="M53.24619-141.7368H283.38713V266.97529H53.24619"/>
</clipPath>
<clipPath id="clip_1">
<path transform="matrix(1,0,0,-1,20.778004,192.837)" d="M-88.34581 0V125.23845H424.9791V0"/>
</clipPath>
<clipPath id="clip_2">
<path transform="matrix(1,0,0,-1,20.778004,192.837)" d="M53.24619-141.7368H283.38713V266.97529H53.24619"/>
</clipPath>
<clipPath id="clip_3">
<path transform="matrix(1,0,0,-1,20.778004,192.837)" d="M-88.34581 0V125.23845H424.9791V0"/>
</clipPath>
<clipPath id="clip_4">
<path transform="matrix(1,0,0,-1,20.778004,192.837)" d="M53.24619 0H283.38713V125.23845H53.24619Z"/>
</clipPath>
</defs>
<path transform="matrix(1,0,0,-1,20.778004,192.837)" d="M53.24619 0H283.38713V125.23845H53.24619Z" fill="#e5e5e5"/>
<g clip-path="url(#clip_0)">
<path transform="matrix(1,0,0,-1,20.778004,192.837)" stroke-width=".3985" stroke-linecap="butt" stroke-miterlimit="10" stroke-linejoin="miter" fill="none" stroke="#ffffff" d="M53.24619 0V125.23845M106.49237 0V125.23845M159.73857 0V125.23845M212.98476 0V125.23845M266.23094 0V125.23845"/>
</g>
<g clip-path="url(#clip_1)">
<path transform="matrix(1,0,0,-1,20.778004,192.837)" stroke-width=".3985" stroke-linecap="butt" stroke-miterlimit="10" stroke-linejoin="miter" fill="none" stroke="#ffffff" d="M53.24619 0H283.38713M53.24619 35.78241H283.38713M53.24619 71.56482H283.38713M53.24619 107.34724H283.38713"/>
</g>
<g clip-path="url(#clip_2)">
<path transform="matrix(1,0,0,-1,20.778004,192.837)" stroke-width=".19925" stroke-linecap="butt" stroke-miterlimit="10" stroke-linejoin="miter" fill="none" stroke="#555555" d="M53.24619-4.2519V0M106.49237-4.2519V0M159.73857-4.2519V0M212.98476-4.2519V0M266.23094-4.2519V0"/>
</g>
<g clip-path="url(#clip_3)">
<path transform="matrix(1,0,0,-1,20.778004,192.837)" stroke-width=".19925" stroke-linecap="butt" stroke-miterlimit="10" stroke-linejoin="miter" fill="none" stroke="#555555" d="M48.99939 0H53.24619M48.99939 35.78241H53.24619M48.99939 71.56482H53.24619M48.99939 107.34724H53.24619"/>
</g>
<path transform="matrix(1,0,0,-1,20.778004,192.837)" stroke-width=".3985" stroke-linecap="butt" stroke-miterlimit="10" stroke-linejoin="miter" fill="none" stroke="#ffffff" d="M53.24619 0V125.23845H283.38713V0H53.24619Z"/>
<text xml:space="preserve" transform="matrix(1 0 -0 1 .0000076293949 246.276)" font-size="9.96264" font-family="CMR10"><tspan y="-37.06" x="66.807 71.78832">10</tspan></text>
<text xml:space="preserve" transform="matrix(1 0 -0 1 .0000076293949 246.276)" font-size="6.97385" font-family="CMR7"><tspan y="-41.173" x="76.77">1</tspan></text>
<text xml:space="preserve" transform="matrix(1 0 -0 1 .0000076293949 246.276)" font-size="9.96264" font-family="CMR10"><tspan y="-37.06" x="120.053 125.034328">10</tspan></text>
<text xml:space="preserve" transform="matrix(1 0 -0 1 .0000076293949 246.276)" font-size="6.97385" font-family="CMR7"><tspan y="-41.173" x="130.016">2</tspan></text>
<text xml:space="preserve" transform="matrix(1 0 -0 1 0 246.276)" font-size="9.96264" font-family="CMR10"><tspan y="-37.06" x="173.298 178.27933">10</tspan></text>
<text xml:space="preserve" transform="matrix(1 0 -0 1 0 246.276)" font-size="6.97385" font-family="CMR7"><tspan y="-41.173" x="183.261">3</tspan></text>
<text xml:space="preserve" transform="matrix(1 0 -0 1 0 246.276)" font-size="9.96264" font-family="CMR10"><tspan y="-37.06" x="226.544 231.52533">10</tspan></text>
<text xml:space="preserve" transform="matrix(1 0 -0 1 0 246.276)" font-size="6.97385" font-family="CMR7"><tspan y="-41.173" x="236.507">4</tspan></text>
<text xml:space="preserve" transform="matrix(1 0 -0 1 0 246.276)" font-size="9.96264" font-family="CMR10"><tspan y="-37.06" x="279.789 284.77033">10</tspan></text>
<text xml:space="preserve" transform="matrix(1 0 -0 1 0 246.276)" font-size="6.97385" font-family="CMR7"><tspan y="-41.173" x="289.752">5</tspan></text>
<text xml:space="preserve" transform="matrix(1 0 -0 1 .0000038146974 246.27602)" font-size="9.96264" font-family="CMR10"><tspan y="-50.229" x="61.276">0</tspan></text>
<text xml:space="preserve" transform="matrix(1 0 -0 1 .0000038146974 246.27602)" font-size="9.96264" font-family="CMR10"><tspan y="-86.011" x="53.527">0</tspan></text>
<text xml:space="preserve" transform="matrix(1 0 -0 1 .0000038146974 246.27602)" font-size="9.96264" font-family="CMMI10" font-style="italic"><tspan y="-86.011" x="58.508">.</tspan></text>
<text xml:space="preserve" transform="matrix(1 0 -0 1 .0000038146974 246.27602)" font-size="9.96264" font-family="CMR10"><tspan y="-86.011" x="61.276">2</tspan></text>
<text xml:space="preserve" transform="matrix(1 0 -0 1 .0000038146974 246.276)" font-size="9.96264" font-family="CMR10"><tspan y="-121.793" x="53.527">0</tspan></text>
<text xml:space="preserve" transform="matrix(1 0 -0 1 .0000038146974 246.276)" font-size="9.96264" font-family="CMMI10" font-style="italic"><tspan y="-121.793" x="58.508">.</tspan></text>
<text xml:space="preserve" transform="matrix(1 0 -0 1 .0000038146974 246.276)" font-size="9.96264" font-family="CMR10"><tspan y="-121.793" x="61.276">4</tspan></text>
<text xml:space="preserve" transform="matrix(1 0 -0 1 .0000038146974 246.276)" font-size="9.96264" font-family="CMR10"><tspan y="-157.575" x="53.527">0</tspan></text>
<text xml:space="preserve" transform="matrix(1 0 -0 1 .0000038146974 246.276)" font-size="9.96264" font-family="CMMI10" font-style="italic"><tspan y="-157.575" x="58.508">.</tspan></text>
<text xml:space="preserve" transform="matrix(1 0 -0 1 .0000038146974 246.276)" font-size="9.96264" font-family="CMR10"><tspan y="-157.575" x="61.276">6</tspan></text>
<g clip-path="url(#clip_4)">
<path transform="matrix(1,0,0,-1,20.778004,192.837)" stroke-width=".3985" stroke-linecap="butt" stroke-miterlimit="10" stroke-linejoin="miter" fill="none" stroke="#000000" d="M96.1699 31.92577V32.9327"/>
<path transform="matrix(0,-1,-1,-0,116.947017,159.904)" stroke-width=".3985" stroke-linecap="butt" stroke-miterlimit="10" stroke-linejoin="miter" fill="none" stroke="#000000" d="M0 1.99255V-1.99255"/>
<path transform="matrix(0,-1,-1,-0,116.947017,159.904)" stroke-width=".3985" stroke-linecap="butt" stroke-miterlimit="10" stroke-linejoin="miter" fill="none" stroke="#000000" d=""/>
<path transform="matrix(1,0,0,-1,20.778004,192.837)" stroke-width=".3985" stroke-linecap="butt" stroke-miterlimit="10" stroke-linejoin="miter" fill="none" stroke="#000000" d="M96.1699 31.92577V30.91885"/>
<path transform="matrix(0,1,1,0,116.94601,161.918)" stroke-width=".3985" stroke-linecap="butt" stroke-miterlimit="10" stroke-linejoin="miter" fill="none" stroke="#000000" d="M0 1.99255V-1.99255"/>
<path transform="matrix(0,1,1,0,116.94601,161.918)" stroke-width=".3985" stroke-linecap="butt" stroke-miterlimit="10" stroke-linejoin="miter" fill="none" stroke="#000000" d=""/>
<path transform="matrix(1,0,0,-1,20.778004,192.837)" stroke-width=".3985" stroke-linecap="butt" stroke-miterlimit="10" stroke-linejoin="miter" fill="none" stroke="#000000" d="M149.4161 74.47466V76.32996"/>
<path transform="matrix(0,-1,-1,-0,170.192,116.508)" stroke-width=".3985" stroke-linecap="butt" stroke-miterlimit="10" stroke-linejoin="miter" fill="none" stroke="#000000" d="M0 1.99255V-1.99255"/>
<path transform="matrix(0,-1,-1,-0,170.192,116.508)" stroke-width=".3985" stroke-linecap="butt" stroke-miterlimit="10" stroke-linejoin="miter" fill="none" stroke="#000000" d=""/>
<path transform="matrix(1,0,0,-1,20.778004,192.837)" stroke-width=".3985" stroke-linecap="butt" stroke-miterlimit="10" stroke-linejoin="miter" fill="none" stroke="#000000" d="M149.4161 74.47466V72.61932"/>
<path transform="matrix(0,1,1,0,170.192,120.218)" stroke-width=".3985" stroke-linecap="butt" stroke-miterlimit="10" stroke-linejoin="miter" fill="none" stroke="#000000" d="M0 1.99255V-1.99255"/>
<path transform="matrix(0,1,1,0,170.192,120.218)" stroke-width=".3985" stroke-linecap="butt" stroke-miterlimit="10" stroke-linejoin="miter" fill="none" stroke="#000000" d=""/>
<path transform="matrix(1,0,0,-1,20.778004,192.837)" stroke-width=".3985" stroke-linecap="butt" stroke-miterlimit="10" stroke-linejoin="miter" fill="none" stroke="#000000" d="M202.6623 106.1911V108.75813"/>
<path transform="matrix(0,-1,-1,-0,223.437,84.08)" stroke-width=".3985" stroke-linecap="butt" stroke-miterlimit="10" stroke-linejoin="miter" fill="none" stroke="#000000" d="M0 1.99255V-1.99255"/>
<path transform="matrix(0,-1,-1,-0,223.437,84.08)" stroke-width=".3985" stroke-linecap="butt" stroke-miterlimit="10" stroke-linejoin="miter" fill="none" stroke="#000000" d=""/>
<path transform="matrix(1,0,0,-1,20.778004,192.837)" stroke-width=".3985" stroke-linecap="butt" stroke-miterlimit="10" stroke-linejoin="miter" fill="none" stroke="#000000" d="M202.6623 106.1911V103.62408"/>
<path transform="matrix(0,1,1,0,223.438,89.214008)" stroke-width=".3985" stroke-linecap="butt" stroke-miterlimit="10" stroke-linejoin="miter" fill="none" stroke="#000000" d="M0 1.99255V-1.99255"/>
<path transform="matrix(0,1,1,0,223.438,89.214008)" stroke-width=".3985" stroke-linecap="butt" stroke-miterlimit="10" stroke-linejoin="miter" fill="none" stroke="#000000" d=""/>
<path transform="matrix(1,0,0,-1,20.778004,192.837)" stroke-width=".3985" stroke-linecap="butt" stroke-miterlimit="10" stroke-linejoin="miter" fill="none" stroke="#000000" d=""/>
<path transform="matrix(1,0,0,-1,20.778004,192.837)" stroke-width=".3985" stroke-linecap="butt" stroke-miterlimit="10" stroke-linejoin="miter" fill="none" stroke="#66c2a5" d="M246.8218 31.9977V37.98804"/>
<path transform="matrix(0,-1,-1,-0,267.59703,154.849)" stroke-width=".3985" stroke-linecap="butt" stroke-miterlimit="10" stroke-linejoin="miter" fill="none" stroke="#66c2a5" d="M0 1.99255V-1.99255"/>
<path transform="matrix(0,-1,-1,-0,267.59703,154.849)" stroke-width=".3985" stroke-linecap="butt" stroke-miterlimit="10" stroke-linejoin="miter" fill="none" stroke="#66c2a5" d=""/>
<path transform="matrix(1,0,0,-1,20.778004,192.837)" stroke-width=".3985" stroke-linecap="butt" stroke-miterlimit="10" stroke-linejoin="miter" fill="none" stroke="#66c2a5" d="M246.8218 31.9977V26.00735"/>
<path transform="matrix(0,1,1,0,267.59703,166.83)" stroke-width=".3985" stroke-linecap="butt" stroke-miterlimit="10" stroke-linejoin="miter" fill="none" stroke="#66c2a5" d="M0 1.99255V-1.99255"/>
<path transform="matrix(0,1,1,0,267.59703,166.83)" stroke-width=".3985" stroke-linecap="butt" stroke-miterlimit="10" stroke-linejoin="miter" fill="none" stroke="#66c2a5" d=""/>
<path transform="matrix(1,0,0,-1,20.778004,192.837)" stroke-width=".3985" stroke-linecap="butt" stroke-miterlimit="10" stroke-linejoin="miter" fill="none" stroke="#66c2a5" d="M262.60734 46.17665V52.11832"/>
<path transform="matrix(0,-1,-1,-0,283.38203,140.71901)" stroke-width=".3985" stroke-linecap="butt" stroke-miterlimit="10" stroke-linejoin="miter" fill="none" stroke="#66c2a5" d="M0 1.99255V-1.99255"/>
<path transform="matrix(0,-1,-1,-0,283.38203,140.71901)" stroke-width=".3985" stroke-linecap="butt" stroke-miterlimit="10" stroke-linejoin="miter" fill="none" stroke="#66c2a5" d=""/>
<path transform="matrix(1,0,0,-1,20.778004,192.837)" stroke-width=".3985" stroke-linecap="butt" stroke-miterlimit="10" stroke-linejoin="miter" fill="none" stroke="#66c2a5" d="M262.60734 46.17665V40.23499"/>
<path transform="matrix(0,1,1,0,283.381,152.602)" stroke-width=".3985" stroke-linecap="butt" stroke-miterlimit="10" stroke-linejoin="miter" fill="none" stroke="#66c2a5" d="M0 1.99255V-1.99255"/>
<path transform="matrix(0,1,1,0,283.381,152.602)" stroke-width=".3985" stroke-linecap="butt" stroke-miterlimit="10" stroke-linejoin="miter" fill="none" stroke="#66c2a5" d=""/>
<path transform="matrix(1,0,0,-1,20.778004,192.837)" stroke-width=".3985" stroke-linecap="butt" stroke-miterlimit="10" stroke-linejoin="miter" fill="none" stroke="#66c2a5" d="M279.23619 61.67313V67.38507"/>
<path transform="matrix(0,-1,-1,-0,300.01,125.453)" stroke-width=".3985" stroke-linecap="butt" stroke-miterlimit="10" stroke-linejoin="miter" fill="none" stroke="#66c2a5" d="M0 1.99255V-1.99255"/>
<path transform="matrix(0,-1,-1,-0,300.01,125.453)" stroke-width=".3985" stroke-linecap="butt" stroke-miterlimit="10" stroke-linejoin="miter" fill="none" stroke="#66c2a5" d=""/>
<path transform="matrix(1,0,0,-1,20.778004,192.837)" stroke-width=".3985" stroke-linecap="butt" stroke-miterlimit="10" stroke-linejoin="miter" fill="none" stroke="#66c2a5" d="M279.23619 61.67313V55.96118"/>
<path transform="matrix(0,1,1,0,300.01,136.876)" stroke-width=".3985" stroke-linecap="butt" stroke-miterlimit="10" stroke-linejoin="miter" fill="none" stroke="#66c2a5" d="M0 1.99255V-1.99255"/>
<path transform="matrix(0,1,1,0,300.01,136.876)" stroke-width=".3985" stroke-linecap="butt" stroke-miterlimit="10" stroke-linejoin="miter" fill="none" stroke="#66c2a5" d=""/>
<path transform="matrix(1,0,0,-1,20.778004,192.837)" stroke-width=".3985" stroke-linecap="butt" stroke-miterlimit="10" stroke-linejoin="miter" fill="none" stroke="#66c2a5" d=""/>
<path transform="matrix(1,0,0,-1,20.778004,192.837)" stroke-width=".3985" stroke-linecap="butt" stroke-miterlimit="10" stroke-linejoin="miter" fill="none" stroke="#e78ac3" d="M130.6293 12.97665V17.5509"/>
<path transform="matrix(0,-1,-1,-0,151.40599,175.28601)" stroke-width=".3985" stroke-linecap="butt" stroke-miterlimit="10" stroke-linejoin="miter" fill="none" stroke="#e78ac3" d="M0 1.99255V-1.99255"/>
<path transform="matrix(0,-1,-1,-0,151.40599,175.28601)" stroke-width=".3985" stroke-linecap="butt" stroke-miterlimit="10" stroke-linejoin="miter" fill="none" stroke="#e78ac3" d=""/>
<path transform="matrix(1,0,0,-1,20.778004,192.837)" stroke-width=".3985" stroke-linecap="butt" stroke-miterlimit="10" stroke-linejoin="miter" fill="none" stroke="#e78ac3" d="M130.6293 12.97665V8.40242"/>
<path transform="matrix(0,1,1,0,151.405,184.434)" stroke-width=".3985" stroke-linecap="butt" stroke-miterlimit="10" stroke-linejoin="miter" fill="none" stroke="#e78ac3" d="M0 1.99255V-1.99255"/>
<path transform="matrix(0,1,1,0,151.405,184.434)" stroke-width=".3985" stroke-linecap="butt" stroke-miterlimit="10" stroke-linejoin="miter" fill="none" stroke="#e78ac3" d=""/>
<path transform="matrix(1,0,0,-1,20.778004,192.837)" stroke-width=".3985" stroke-linecap="butt" stroke-miterlimit="10" stroke-linejoin="miter" fill="none" stroke="#e78ac3" d=""/>
<path transform="matrix(1,0,0,-1,20.778004,192.837)" stroke-width=".3985" stroke-linecap="butt" stroke-miterlimit="10" stroke-linejoin="miter" fill="none" stroke="#9966cc" d="M246.8218 29.66594V37.11047"/>
<path transform="matrix(0,-1,-1,-0,267.596,155.727)" stroke-width=".3985" stroke-linecap="butt" stroke-miterlimit="10" stroke-linejoin="miter" fill="none" stroke="#9966cc" d="M0 1.99255V-1.99255"/>
<path transform="matrix(0,-1,-1,-0,267.596,155.727)" stroke-width=".3985" stroke-linecap="butt" stroke-miterlimit="10" stroke-linejoin="miter" fill="none" stroke="#9966cc" d=""/>
<path transform="matrix(1,0,0,-1,20.778004,192.837)" stroke-width=".3985" stroke-linecap="butt" stroke-miterlimit="10" stroke-linejoin="miter" fill="none" stroke="#9966cc" d="M246.8218 29.66594V22.2214"/>
<path transform="matrix(0,1,1,0,267.59703,170.616)" stroke-width=".3985" stroke-linecap="butt" stroke-miterlimit="10" stroke-linejoin="miter" fill="none" stroke="#9966cc" d="M0 1.99255V-1.99255"/>
<path transform="matrix(0,1,1,0,267.59703,170.616)" stroke-width=".3985" stroke-linecap="butt" stroke-miterlimit="10" stroke-linejoin="miter" fill="none" stroke="#9966cc" d=""/>
<path transform="matrix(1,0,0,-1,20.778004,192.837)" stroke-width=".3985" stroke-linecap="butt" stroke-miterlimit="10" stroke-linejoin="miter" fill="none" stroke="#9966cc" d="M262.60734 36.31609V44.59383"/>
<path transform="matrix(0,-1,-1,-0,283.38203,148.24301)" stroke-width=".3985" stroke-linecap="butt" stroke-miterlimit="10" stroke-linejoin="miter" fill="none" stroke="#9966cc" d="M0 1.99255V-1.99255"/>
<path transform="matrix(0,-1,-1,-0,283.38203,148.24301)" stroke-width=".3985" stroke-linecap="butt" stroke-miterlimit="10" stroke-linejoin="miter" fill="none" stroke="#9966cc" d=""/>
<path transform="matrix(1,0,0,-1,20.778004,192.837)" stroke-width=".3985" stroke-linecap="butt" stroke-miterlimit="10" stroke-linejoin="miter" fill="none" stroke="#9966cc" d="M262.60734 36.31609V28.03838"/>
<path transform="matrix(0,1,1,0,283.38203,164.79901)" stroke-width=".3985" stroke-linecap="butt" stroke-miterlimit="10" stroke-linejoin="miter" fill="none" stroke="#9966cc" d="M0 1.99255V-1.99255"/>
<path transform="matrix(0,1,1,0,283.38203,164.79901)" stroke-width=".3985" stroke-linecap="butt" stroke-miterlimit="10" stroke-linejoin="miter" fill="none" stroke="#9966cc" d=""/>
<path transform="matrix(1,0,0,-1,20.778004,192.837)" stroke-width=".3985" stroke-linecap="butt" stroke-miterlimit="10" stroke-linejoin="miter" fill="none" stroke="#9966cc" d="M279.23619 40.28723V48.16008"/>
<path transform="matrix(0,-1,-1,-0,300.01103,144.677)" stroke-width=".3985" stroke-linecap="butt" stroke-miterlimit="10" stroke-linejoin="miter" fill="none" stroke="#9966cc" d="M0 1.99255V-1.99255"/>
<path transform="matrix(0,-1,-1,-0,300.01103,144.677)" stroke-width=".3985" stroke-linecap="butt" stroke-miterlimit="10" stroke-linejoin="miter" fill="none" stroke="#9966cc" d=""/>
<path transform="matrix(1,0,0,-1,20.778004,192.837)" stroke-width=".3985" stroke-linecap="butt" stroke-miterlimit="10" stroke-linejoin="miter" fill="none" stroke="#9966cc" d="M279.23619 40.28723V32.41438"/>
<path transform="matrix(0,1,1,0,300.01103,160.423)" stroke-width=".3985" stroke-linecap="butt" stroke-miterlimit="10" stroke-linejoin="miter" fill="none" stroke="#9966cc" d="M0 1.99255V-1.99255"/>
<path transform="matrix(0,1,1,0,300.01103,160.423)" stroke-width=".3985" stroke-linecap="butt" stroke-miterlimit="10" stroke-linejoin="miter" fill="none" stroke="#9966cc" d=""/>
<path transform="matrix(1,0,0,-1,20.778004,192.837)" stroke-width=".3985" stroke-linecap="butt" stroke-miterlimit="10" stroke-linejoin="miter" fill="none" stroke="#9966cc" d=""/>
<path transform="matrix(1,0,0,-1,20.778004,192.837)" stroke-width=".3985" stroke-linecap="butt" stroke-miterlimit="10" stroke-linejoin="miter" fill="none" stroke="#308ce8" d="M226.62941 20.33693V28.0704"/>
<path transform="matrix(0,-1,-1,-0,247.404,164.767)" stroke-width=".3985" stroke-linecap="butt" stroke-miterlimit="10" stroke-linejoin="miter" fill="none" stroke="#308ce8" d="M0 1.99255V-1.99255"/>
<path transform="matrix(0,-1,-1,-0,247.404,164.767)" stroke-width=".3985" stroke-linecap="butt" stroke-miterlimit="10" stroke-linejoin="miter" fill="none" stroke="#308ce8" d=""/>
<path transform="matrix(1,0,0,-1,20.778004,192.837)" stroke-width=".3985" stroke-linecap="butt" stroke-miterlimit="10" stroke-linejoin="miter" fill="none" stroke="#308ce8" d="M226.62941 20.33693V12.60345"/>
<path transform="matrix(0,1,1,0,247.404,180.233)" stroke-width=".3985" stroke-linecap="butt" stroke-miterlimit="10" stroke-linejoin="miter" fill="none" stroke="#308ce8" d="M0 1.99255V-1.99255"/>
<path transform="matrix(0,1,1,0,247.404,180.233)" stroke-width=".3985" stroke-linecap="butt" stroke-miterlimit="10" stroke-linejoin="miter" fill="none" stroke="#308ce8" d=""/>
<path transform="matrix(1,0,0,-1,20.778004,192.837)" stroke-width=".3985" stroke-linecap="butt" stroke-miterlimit="10" stroke-linejoin="miter" fill="none" stroke="#308ce8" d="M263.84877 27.89864V33.22878"/>
<path transform="matrix(0,-1,-1,-0,284.62403,159.608)" stroke-width=".3985" stroke-linecap="butt" stroke-miterlimit="10" stroke-linejoin="miter" fill="none" stroke="#308ce8" d="M0 1.99255V-1.99255"/>
<path transform="matrix(0,-1,-1,-0,284.62403,159.608)" stroke-width=".3985" stroke-linecap="butt" stroke-miterlimit="10" stroke-linejoin="miter" fill="none" stroke="#308ce8" d=""/>
<path transform="matrix(1,0,0,-1,20.778004,192.837)" stroke-width=".3985" stroke-linecap="butt" stroke-miterlimit="10" stroke-linejoin="miter" fill="none" stroke="#308ce8" d="M263.84877 27.89864V22.5685"/>
<path transform="matrix(0,1,1,0,284.62403,170.26902)" stroke-width=".3985" stroke-linecap="butt" stroke-miterlimit="10" stroke-linejoin="miter" fill="none" stroke="#308ce8" d="M0 1.99255V-1.99255"/>
<path transform="matrix(0,1,1,0,284.62403,170.26902)" stroke-width=".3985" stroke-linecap="butt" stroke-miterlimit="10" stroke-linejoin="miter" fill="none" stroke="#308ce8" d=""/>
<path transform="matrix(1,0,0,-1,20.778004,192.837)" stroke-width=".3985" stroke-linecap="butt" stroke-miterlimit="10" stroke-linejoin="miter" fill="none" stroke="#308ce8" d=""/>
</g>
<path transform="matrix(1,0,0,-1,20.778004,192.837)" stroke-width=".99628" stroke-linecap="butt" stroke-miterlimit="10" stroke-linejoin="miter" fill="none" stroke="#000000" d="M96.1699 31.92577V34.9146M96.1699 31.92577 99.01248 32.84938M96.1699 31.92577 97.9267 29.50775M96.1699 31.92577 94.41313 29.50775M96.1699 31.92577 93.32735 32.84938"/>
<path transform="matrix(1,0,0,-1,20.778004,192.837)" stroke-width=".99628" stroke-linecap="butt" stroke-miterlimit="10" stroke-linejoin="miter" fill="none" stroke="#000000" d="M149.4161 74.47466V77.46349M149.4161 74.47466 152.25868 75.39827M149.4161 74.47466 151.17288 72.05663M149.4161 74.47466 147.65932 72.05663M149.4161 74.47466 146.57353 75.39827"/>
<path transform="matrix(1,0,0,-1,20.778004,192.837)" stroke-width=".99628" stroke-linecap="butt" stroke-miterlimit="10" stroke-linejoin="miter" fill="none" stroke="#000000" d="M202.6623 106.1911V109.17993M202.6623 106.1911 205.50487 107.11472M202.6623 106.1911 204.41909 103.77307M202.6623 106.1911 200.9055 103.77307M202.6623 106.1911 199.81972 107.11472"/>
<path transform="matrix(1,0,0,-1,20.778004,192.837)" stroke-width=".99628" stroke-linecap="butt" stroke-miterlimit="10" stroke-linejoin="miter" fill="none" stroke="#000000" d=""/>
<path transform="matrix(1,0,0,-1,20.778004,192.837)" d="M248.81435 31.9977C248.81435 33.09816 247.92226 33.99025 246.8218 33.99025 245.72132 33.99025 244.82924 33.09816 244.82924 31.9977 244.82924 30.89722 245.72132 30.00514 246.8218 30.00514 247.92226 30.00514 248.81435 30.89722 248.81435 31.9977ZM246.8218 31.9977" fill="#66c2a5" fill-opacity="0"/>
<path transform="matrix(1,0,0,-1,20.778004,192.837)" stroke-width=".99628" stroke-linecap="butt" stroke-miterlimit="10" stroke-linejoin="miter" fill="none" stroke="#66c2a5" d="M248.81435 31.9977C248.81435 33.09816 247.92226 33.99025 246.8218 33.99025 245.72132 33.99025 244.82924 33.09816 244.82924 31.9977 244.82924 30.89722 245.72132 30.00514 246.8218 30.00514 247.92226 30.00514 248.81435 30.89722 248.81435 31.9977ZM246.8218 31.9977"/>
<path transform="matrix(1,0,0,-1,20.778004,192.837)" d="M264.59989 46.17665C264.59989 47.27713 263.7078 48.1692 262.60734 48.1692 261.50685 48.1692 260.61476 47.27713 260.61476 46.17665 260.61476 45.07619 261.50685 44.1841 262.60734 44.1841 263.7078 44.1841 264.59989 45.07619 264.59989 46.17665ZM262.60734 46.17665" fill="#66c2a5" fill-opacity="0"/>
<path transform="matrix(1,0,0,-1,20.778004,192.837)" stroke-width=".99628" stroke-linecap="butt" stroke-miterlimit="10" stroke-linejoin="miter" fill="none" stroke="#66c2a5" d="M264.59989 46.17665C264.59989 47.27713 263.7078 48.1692 262.60734 48.1692 261.50685 48.1692 260.61476 47.27713 260.61476 46.17665 260.61476 45.07619 261.50685 44.1841 262.60734 44.1841 263.7078 44.1841 264.59989 45.07619 264.59989 46.17665ZM262.60734 46.17665"/>
<path transform="matrix(1,0,0,-1,20.778004,192.837)" d="M281.22874 61.67313C281.22874 62.7736 280.33665 63.66568 279.23619 63.66568 278.1357 63.66568 277.24363 62.7736 277.24363 61.67313 277.24363 60.57266 278.1357 59.68057 279.23619 59.68057 280.33665 59.68057 281.22874 60.57266 281.22874 61.67313ZM279.23619 61.67313" fill="#66c2a5" fill-opacity="0"/>
<path transform="matrix(1,0,0,-1,20.778004,192.837)" stroke-width=".99628" stroke-linecap="butt" stroke-miterlimit="10" stroke-linejoin="miter" fill="none" stroke="#66c2a5" d="M281.22874 61.67313C281.22874 62.7736 280.33665 63.66568 279.23619 63.66568 278.1357 63.66568 277.24363 62.7736 277.24363 61.67313 277.24363 60.57266 278.1357 59.68057 279.23619 59.68057 280.33665 59.68057 281.22874 60.57266 281.22874 61.67313ZM279.23619 61.67313"/>
<path transform="matrix(1,0,0,-1,20.778004,192.837)" stroke-width=".99628" stroke-linecap="butt" stroke-miterlimit="10" stroke-linejoin="miter" fill="none" stroke="#66c2a5" d=""/>
<path transform="matrix(1,0,0,-1,20.778004,192.837)" d="M127.64047 12.97665 132.12372 15.56506V10.38824Z" fill="#e78ac3"/>
<path transform="matrix(1,0,0,-1,20.778004,192.837)" stroke-width=".99628" stroke-linecap="butt" stroke-miterlimit="10" stroke-linejoin="miter" fill="none" stroke="#e78ac3" d="M127.64047 12.97665 132.12372 15.56506V10.38824Z"/>
<path transform="matrix(1,0,0,-1,20.778004,192.837)" stroke-width=".99628" stroke-linecap="butt" stroke-miterlimit="10" stroke-linejoin="miter" fill="none" stroke="#e78ac3" d=""/>
<path transform="matrix(1,0,0,-1,20.778004,192.837)" d="M246.8218 31.6585 248.31621 29.66594 246.8218 27.67339 245.32738 29.66594Z" fill="#9966cc" fill-opacity="0"/>
<path transform="matrix(1,0,0,-1,20.778004,192.837)" stroke-width=".99628" stroke-linecap="butt" stroke-miterlimit="10" stroke-linejoin="miter" fill="none" stroke="#9966cc" d="M246.8218 31.6585 248.31621 29.66594 246.8218 27.67339 245.32738 29.66594Z"/>
<path transform="matrix(1,0,0,-1,20.778004,192.837)" d="M262.60734 38.30864 264.1017 36.31609 262.60734 34.32353 261.1129 36.31609Z" fill="#9966cc" fill-opacity="0"/>
<path transform="matrix(1,0,0,-1,20.778004,192.837)" stroke-width=".99628" stroke-linecap="butt" stroke-miterlimit="10" stroke-linejoin="miter" fill="none" stroke="#9966cc" d="M262.60734 38.30864 264.1017 36.31609 262.60734 34.32353 261.1129 36.31609Z"/>
<path transform="matrix(1,0,0,-1,20.778004,192.837)" d="M279.23619 42.27979 280.7306 40.28723 279.23619 38.29468 277.74177 40.28723Z" fill="#9966cc" fill-opacity="0"/>
<path transform="matrix(1,0,0,-1,20.778004,192.837)" stroke-width=".99628" stroke-linecap="butt" stroke-miterlimit="10" stroke-linejoin="miter" fill="none" stroke="#9966cc" d="M279.23619 42.27979 280.7306 40.28723 279.23619 38.29468 277.74177 40.28723Z"/>
<path transform="matrix(1,0,0,-1,20.778004,192.837)" stroke-width=".99628" stroke-linecap="butt" stroke-miterlimit="10" stroke-linejoin="miter" fill="none" stroke="#9966cc" d=""/>
<path transform="matrix(1,0,0,-1,20.778004,192.837)" d="M224.63686 18.34438H228.62197V22.32948H224.63686Z" fill="#308ce8" fill-opacity="0"/>
<path transform="matrix(1,0,0,-1,20.778004,192.837)" stroke-width=".99628" stroke-linecap="butt" stroke-miterlimit="10" stroke-linejoin="miter" fill="none" stroke="#308ce8" d="M224.63686 18.34438H228.62197V22.32948H224.63686Z"/>
<path transform="matrix(1,0,0,-1,20.778004,192.837)" d="M261.85624 25.90608H265.84135V29.89118H261.85624Z" fill="#308ce8" fill-opacity="0"/>
<path transform="matrix(1,0,0,-1,20.778004,192.837)" stroke-width=".99628" stroke-linecap="butt" stroke-miterlimit="10" stroke-linejoin="miter" fill="none" stroke="#308ce8" d="M261.85624 25.90608H265.84135V29.89118H261.85624Z"/>
<path transform="matrix(1,0,0,-1,20.778004,192.837)" stroke-width=".99628" stroke-linecap="butt" stroke-miterlimit="10" stroke-linejoin="miter" fill="none" stroke="#308ce8" d=""/>
<text xml:space="preserve" transform="matrix(1 0 -0 1 0 246.276)" font-size="9.96264" font-family="LMRoman10"><tspan y="-22.748" x="124.345 131.53803 134.30764 142.6065 150.34749 154.22296 162.52184 165.29145 170.83068 174.75595 181.94899 186.93032 195.78711 200.76844 206.0287 213.50069 218.48201 223.46334 231.76222 239.5829 246.36746">Time(mins)on1xA100GPU</tspan><tspan y="-10.793" x="149.376">(</tspan></text>
<text xml:space="preserve" transform="matrix(1 0 -0 1 0 246.276)" font-size="9.96264" font-family="CMSY10" font-style="italic"><tspan y="-10.793" x="153.252">&#x2190;</tspan></text>
<text xml:space="preserve" transform="matrix(1 0 -0 1 0 246.276)" font-size="9.96264" font-family="LMRoman10"><tspan y="-10.793" x="166.532 174.83087 179.8122 183.71755 191.45853 195.88195 198.64824 201.41454 204.18082 208.60424 211.37384 215.79726 221.05753 224.933">moreefficient)</tspan></text>
<text xml:space="preserve" transform="matrix(0 -1 1 0 118.993007 215.66501)" font-size="9.96264" font-family="LMRoman10"><tspan y="-86.758" x="45.561 52.75403 57.735349 61.6407 65.54606 69.96947 72.73908 77.720409 81.59587 84.365489 89.34681 98.2036 102.07906 108.30571 115.91717 121.4564">Correlation(LDS)</tspan><tspan y="-74.802" x="44.191 48.066469 56.36535 61.34667 65.25202 72.99299 77.97431 82.39772 86.82114 92.36037 96.265727 101.24705 105.12251">(moreaccurate</tspan></text>
<text xml:space="preserve" transform="matrix(0 -1 1 0 118.993007 215.66501)" font-size="9.96264" font-family="CMSY10" font-style="italic"><tspan y="-74.802" x="112.863">&#x2192;</tspan></text>
<text xml:space="preserve" transform="matrix(0 -1 1 0 118.993007 215.66501)" font-size="9.96264" font-family="LMRoman10"><tspan y="-74.802" x="122.826">)</tspan></text>
<text xml:space="preserve" transform="matrix(1 0 -0 1 0 246.276)" font-size="9.96264" font-family="LMRoman10"><tspan y="-190.106" x="143.13 150.18355 156.96811 163.47371 170.66674 173.9843 179.52353 184.50485 188.43013 196.17111 201.15244 210.00923 217.76016 225.23215 231.4588">BERT-baseonQNLI</tspan></text>
<path transform="matrix(1,0,0,-1,20.778004,192.837)" d="M-15.59752 157.77025H301.13423V187.65843H-15.59752Z" fill="#e5e5e5" fill-opacity=".8"/>
<path transform="matrix(1,0,0,-1,20.778004,192.837)" stroke-width=".3985" stroke-linecap="butt" stroke-miterlimit="10" stroke-linejoin="miter" fill="none" stroke="#e5e5e5" d="M-15.59752 157.77025H301.13423V187.65843H-15.59752Z"/>
<path transform="matrix(1,0,0,-1,2.5080038,13.649006)" stroke-width=".3985" stroke-linecap="butt" stroke-miterlimit="10" stroke-linejoin="miter" fill="none" stroke="#000000" d=""/>
<path transform="matrix(1,0,0,-1,2.5080038,13.649006)" stroke-width=".99628" stroke-linecap="butt" stroke-miterlimit="10" stroke-linejoin="miter" fill="none" stroke="#000000" d="M8.50412 0V2.98883M8.50412 0 11.3467 .9236M8.50412 0 10.2609-2.41801M8.50412 0 6.74733-2.41801M8.50412 0 5.66154 .9236"/>
<text xml:space="preserve" transform="matrix(1 0 -0 1 .0000038146974 246.276)" font-size="9.96264" font-family="LMRoman10"><tspan y="-229.808" x="18.682 25.875027 33.20753 40.679513">TRAK</tspan></text>
<path transform="matrix(1,0,0,-1,126.588008,13.649006)" stroke-width=".3985" stroke-linecap="butt" stroke-miterlimit="10" stroke-linejoin="miter" fill="none" stroke="#66c2a5" d=""/>
<path transform="matrix(1,0,0,-1,126.588008,13.649006)" d="M10.49667 0C10.49667 1.10046 9.60458 1.99255 8.50412 1.99255 7.40364 1.99255 6.51157 1.10046 6.51157 0 6.51157-1.10046 7.40364-1.99255 8.50412-1.99255 9.60458-1.99255 10.49667-1.10046 10.49667 0ZM8.50412 0" fill="#66c2a5" fill-opacity="0"/>
<path transform="matrix(1,0,0,-1,126.588008,13.649006)" stroke-width=".99628" stroke-linecap="butt" stroke-miterlimit="10" stroke-linejoin="miter" fill="none" stroke="#66c2a5" d="M10.49667 0C10.49667 1.10046 9.60458 1.99255 8.50412 1.99255 7.40364 1.99255 6.51157 1.10046 6.51157 0 6.51157-1.10046 7.40364-1.99255 8.50412-1.99255 9.60458-1.99255 10.49667-1.10046 10.49667 0ZM8.50412 0"/>
<text xml:space="preserve" transform="matrix(1 0 -0 1 0 246.276)" font-size="9.96264" font-family="LMRoman10"><tspan y="-229.638" x="141.911 149.52245 154.50377 158.37924 163.36057 171.65944 176.91973 182.45896 186.88237 192.96955 195.73915 199.33567 206.12023 212.90479 220.65572 225.63704 230.61837">Datamodel[IPE+22]</tspan></text>
<path transform="matrix(1,0,0,-1,273.289,13.649006)" stroke-width=".3985" stroke-linecap="butt" stroke-miterlimit="10" stroke-linejoin="miter" fill="none" stroke="#e78ac3" d=""/>
<path transform="matrix(1,0,0,-1,273.289,13.649006)" d="M5.51529 0 9.99854 2.58841V-2.58841Z" fill="#e78ac3" fill-opacity=".8"/>
<path transform="matrix(1,0,0,-1,273.289,13.649006)" stroke-width=".99628" stroke-linecap="butt" stroke-miterlimit="10" stroke-linejoin="miter" fill="none" stroke="#e78ac3" d="M5.51529 0 9.99854 2.58841V-2.58841Z"/>
<text xml:space="preserve" transform="matrix(1 0 -0 1 0 246.276)" font-size="9.96264" font-family="LMRoman10"><tspan y="-229.972" x="288.115 294.4811 298.38648 303.3678 307.7912 311.38774">TracIn</tspan></text>
<path transform="matrix(1,0,0,-1,2.5079957,26.600007)" stroke-width=".3985" stroke-linecap="butt" stroke-miterlimit="10" stroke-linejoin="miter" fill="none" stroke="#9966cc" d=""/>
<path transform="matrix(1,0,0,-1,2.5079957,26.600007)" d="M8.50412 1.99255 9.99854 0 8.50412-1.99255 7.0097 0Z" fill="#9966cc" fill-opacity="0"/>
<path transform="matrix(1,0,0,-1,2.5079957,26.600007)" stroke-width=".99628" stroke-linecap="butt" stroke-miterlimit="10" stroke-linejoin="miter" fill="none" stroke="#9966cc" d="M8.50412 1.99255 9.99854 0 8.50412-1.99255 7.0097 0Z"/>
<text xml:space="preserve" transform="matrix(1 0 -0 1 -.0000038146974 246.276)" font-size="9.96264" font-family="LMRoman10"><tspan y="-216.687" x="18.682 25.466557 33.765436 39.304666 46.497694 50.094205 55.63343 58.403047 61.17266 66.71189 71.1353 76.67453 81.097949 88.83892 91.608539 98.11414 104.20132 109.18264 114.16396">Emp.Influence[FZ20]</tspan></text>
<path transform="matrix(1,0,0,-1,126.588,26.600007)" stroke-width=".3985" stroke-linecap="butt" stroke-miterlimit="10" stroke-linejoin="miter" fill="none" stroke="#308ce8" d=""/>
<path transform="matrix(1,0,0,-1,126.588,26.600007)" d="M6.51157-1.99255H10.49667V1.99255H6.51157Z" fill="#308ce8" fill-opacity="0"/>
<path transform="matrix(1,0,0,-1,126.588,26.600007)" stroke-width=".99628" stroke-linecap="butt" stroke-miterlimit="10" stroke-linejoin="miter" fill="none" stroke="#308ce8" d="M6.51157-1.99255H10.49667V1.99255H6.51157Z"/>
<text xml:space="preserve" transform="matrix(1 0 -0 1 0 246.276)" font-size="9.96264" font-family="LMRoman10"><tspan y="-216.687" x="141.911 145.5075 151.04674 153.81635 156.58597 162.1252 166.54862 172.08785 176.51126 184.25225 189.93094 195.47017 201.0094 205.43282 209.30829 212.0779 217.05922 222.59845 229.8413 232.6109 240.36183 246.58849 251.56981 256.55113">InfluenceFunctions[KL17]</tspan></text>
</svg>
